<?xml version="1.0" standalone="no"?>
<!DOCTYPE svg PUBLIC "-//W3C//DTD SVG 1.1//EN" "http://www.w3.org/Graphics/SVG/1.1/DTD/svg11.dtd">
<svg version="1.1" width="1200" height="646" onload="init(evt)" viewBox="0 0 1200 646" xmlns="http://www.w3.org/2000/svg" xmlns:xlink="http://www.w3.org/1999/xlink">
<!-- Flame graph stack visualization. See https://github.com/brendangregg/FlameGraph for latest version, and http://www.brendangregg.com/flamegraphs.html for examples. -->
<!-- NOTES:  -->
<defs>
	<linearGradient id="background" y1="0" y2="1" x1="0" x2="0" >
		<stop stop-color="#eeeeee" offset="5%" />
		<stop stop-color="#eeeeb0" offset="95%" />
	</linearGradient>
</defs>
<style type="text/css">
	text { font-family:Verdana; font-size:12px; fill:rgb(0,0,0); }
	#search, #ignorecase { opacity:0.1; cursor:pointer; }
	#search:hover, #search.show, #ignorecase:hover, #ignorecase.show { opacity:1; }
	#subtitle { text-anchor:middle; font-color:rgb(160,160,160); }
	#title { text-anchor:middle; font-size:17px}
	#unzoom { cursor:pointer; }
	#frames > *:hover { stroke:black; stroke-width:0.5; cursor:pointer; }
	.hide { display:none; }
	.parent { opacity:0.5; }
</style>
<script type="text/ecmascript">
<![CDATA[
	"use strict";
	var details, searchbtn, unzoombtn, matchedtxt, svg, searching, currentSearchTerm, ignorecase, ignorecaseBtn;
	function init(evt) {
		details = document.getElementById("details").firstChild;
		searchbtn = document.getElementById("search");
		ignorecaseBtn = document.getElementById("ignorecase");
		unzoombtn = document.getElementById("unzoom");
		matchedtxt = document.getElementById("matched");
		svg = document.getElementsByTagName("svg")[0];
		searching = 0;
		currentSearchTerm = null;

		// use GET parameters to restore a flamegraphs state.
		var params = get_params();
		if (params.x && params.y)
			zoom(find_group(document.querySelector('[x="' + params.x + '"][y="' + params.y + '"]')));
                if (params.s) search(params.s);
	}

	// event listeners
	window.addEventListener("click", function(e) {
		var target = find_group(e.target);
		if (target) {
			if (target.nodeName == "a") {
				if (e.ctrlKey === false) return;
				e.preventDefault();
			}
			if (target.classList.contains("parent")) unzoom(true);
			zoom(target);
			if (!document.querySelector('.parent')) {
				// we have basically done a clearzoom so clear the url
				var params = get_params();
				if (params.x) delete params.x;
				if (params.y) delete params.y;
				history.replaceState(null, null, parse_params(params));
				unzoombtn.classList.add("hide");
				return;
			}

			// set parameters for zoom state
			var el = target.querySelector("rect");
			if (el && el.attributes && el.attributes.y && el.attributes._orig_x) {
				var params = get_params()
				params.x = el.attributes._orig_x.value;
				params.y = el.attributes.y.value;
				history.replaceState(null, null, parse_params(params));
			}
		}
		else if (e.target.id == "unzoom") clearzoom();
		else if (e.target.id == "search") search_prompt();
		else if (e.target.id == "ignorecase") toggle_ignorecase();
	}, false)

	// mouse-over for info
	// show
	window.addEventListener("mouseover", function(e) {
		var target = find_group(e.target);
		if (target) details.nodeValue = "Function: " + g_to_text(target);
	}, false)

	// clear
	window.addEventListener("mouseout", function(e) {
		var target = find_group(e.target);
		if (target) details.nodeValue = ' ';
	}, false)

	// ctrl-F for search
	// ctrl-I to toggle case-sensitive search
	window.addEventListener("keydown",function (e) {
		if (e.keyCode === 114 || (e.ctrlKey && e.keyCode === 70)) {
			e.preventDefault();
			search_prompt();
		}
		else if (e.ctrlKey && e.keyCode === 73) {
			e.preventDefault();
			toggle_ignorecase();
		}
	}, false)

	// functions
	function get_params() {
		var params = {};
		var paramsarr = window.location.search.substr(1).split('&');
		for (var i = 0; i < paramsarr.length; ++i) {
			var tmp = paramsarr[i].split("=");
			if (!tmp[0] || !tmp[1]) continue;
			params[tmp[0]]  = decodeURIComponent(tmp[1]);
		}
		return params;
	}
	function parse_params(params) {
		var uri = "?";
		for (var key in params) {
			uri += key + '=' + encodeURIComponent(params[key]) + '&';
		}
		if (uri.slice(-1) == "&")
			uri = uri.substring(0, uri.length - 1);
		if (uri == '?')
			uri = window.location.href.split('?')[0];
		return uri;
	}
	function find_child(node, selector) {
		var children = node.querySelectorAll(selector);
		if (children.length) return children[0];
	}
	function find_group(node) {
		var parent = node.parentElement;
		if (!parent) return;
		if (parent.id == "frames") return node;
		return find_group(parent);
	}
	function orig_save(e, attr, val) {
		if (e.attributes["_orig_" + attr] != undefined) return;
		if (e.attributes[attr] == undefined) return;
		if (val == undefined) val = e.attributes[attr].value;
		e.setAttribute("_orig_" + attr, val);
	}
	function orig_load(e, attr) {
		if (e.attributes["_orig_"+attr] == undefined) return;
		e.attributes[attr].value = e.attributes["_orig_" + attr].value;
		e.removeAttribute("_orig_"+attr);
	}
	function g_to_text(e) {
		var text = find_child(e, "title").firstChild.nodeValue;
		return (text)
	}
	function g_to_func(e) {
		var func = g_to_text(e);
		// if there's any manipulation we want to do to the function
		// name before it's searched, do it here before returning.
		return (func);
	}
	function update_text(e) {
		var r = find_child(e, "rect");
		var t = find_child(e, "text");
		var w = parseFloat(r.attributes.width.value) -3;
		var txt = find_child(e, "title").textContent.replace(/\([^(]*\)$/,"");
		t.attributes.x.value = parseFloat(r.attributes.x.value) + 3;

		// Smaller than this size won't fit anything
		if (w < 2 * 12 * 0.59) {
			t.textContent = "";
			return;
		}

		t.textContent = txt;
		var sl = t.getSubStringLength(0, txt.length);
		// check if only whitespace or if we can fit the entire string into width w
		if (/^ *$/.test(txt) || sl < w)
			return;

		// this isn't perfect, but gives a good starting point
		// and avoids calling getSubStringLength too often
		var start = Math.floor((w/sl) * txt.length);
		for (var x = start; x > 0; x = x-2) {
			if (t.getSubStringLength(0, x + 2) <= w) {
				t.textContent = txt.substring(0, x) + "..";
				return;
			}
		}
		t.textContent = "";
	}

	// zoom
	function zoom_reset(e) {
		if (e.attributes != undefined) {
			orig_load(e, "x");
			orig_load(e, "width");
		}
		if (e.childNodes == undefined) return;
		for (var i = 0, c = e.childNodes; i < c.length; i++) {
			zoom_reset(c[i]);
		}
	}
	function zoom_child(e, x, ratio) {
		if (e.attributes != undefined) {
			if (e.attributes.x != undefined) {
				orig_save(e, "x");
				e.attributes.x.value = (parseFloat(e.attributes.x.value) - x - 10) * ratio + 10;
				if (e.tagName == "text")
					e.attributes.x.value = find_child(e.parentNode, "rect[x]").attributes.x.value + 3;
			}
			if (e.attributes.width != undefined) {
				orig_save(e, "width");
				e.attributes.width.value = parseFloat(e.attributes.width.value) * ratio;
			}
		}

		if (e.childNodes == undefined) return;
		for (var i = 0, c = e.childNodes; i < c.length; i++) {
			zoom_child(c[i], x - 10, ratio);
		}
	}
	function zoom_parent(e) {
		if (e.attributes) {
			if (e.attributes.x != undefined) {
				orig_save(e, "x");
				e.attributes.x.value = 10;
			}
			if (e.attributes.width != undefined) {
				orig_save(e, "width");
				e.attributes.width.value = parseInt(svg.width.baseVal.value) - (10 * 2);
			}
		}
		if (e.childNodes == undefined) return;
		for (var i = 0, c = e.childNodes; i < c.length; i++) {
			zoom_parent(c[i]);
		}
	}
	function zoom(node) {
		var attr = find_child(node, "rect").attributes;
		var width = parseFloat(attr.width.value);
		var xmin = parseFloat(attr.x.value);
		var xmax = parseFloat(xmin + width);
		var ymin = parseFloat(attr.y.value);
		var ratio = (svg.width.baseVal.value - 2 * 10) / width;

		// XXX: Workaround for JavaScript float issues (fix me)
		var fudge = 0.0001;

		unzoombtn.classList.remove("hide");

		var el = document.getElementById("frames").children;
		for (var i = 0; i < el.length; i++) {
			var e = el[i];
			var a = find_child(e, "rect").attributes;
			var ex = parseFloat(a.x.value);
			var ew = parseFloat(a.width.value);
			var upstack;
			// Is it an ancestor
			if (0 == 0) {
				upstack = parseFloat(a.y.value) > ymin;
			} else {
				upstack = parseFloat(a.y.value) < ymin;
			}
			if (upstack) {
				// Direct ancestor
				if (ex <= xmin && (ex+ew+fudge) >= xmax) {
					e.classList.add("parent");
					zoom_parent(e);
					update_text(e);
				}
				// not in current path
				else
					e.classList.add("hide");
			}
			// Children maybe
			else {
				// no common path
				if (ex < xmin || ex + fudge >= xmax) {
					e.classList.add("hide");
				}
				else {
					zoom_child(e, xmin, ratio);
					update_text(e);
				}
			}
		}
		search();
	}
	function unzoom(dont_update_text) {
		unzoombtn.classList.add("hide");
		var el = document.getElementById("frames").children;
		for(var i = 0; i < el.length; i++) {
			el[i].classList.remove("parent");
			el[i].classList.remove("hide");
			zoom_reset(el[i]);
			if(!dont_update_text) update_text(el[i]);
		}
		search();
	}
	function clearzoom() {
		unzoom();

		// remove zoom state
		var params = get_params();
		if (params.x) delete params.x;
		if (params.y) delete params.y;
		history.replaceState(null, null, parse_params(params));
	}

	// search
	function toggle_ignorecase() {
		ignorecase = !ignorecase;
		if (ignorecase) {
			ignorecaseBtn.classList.add("show");
		} else {
			ignorecaseBtn.classList.remove("show");
		}
		reset_search();
		search();
	}
	function reset_search() {
		var el = document.querySelectorAll("#frames rect");
		for (var i = 0; i < el.length; i++) {
			orig_load(el[i], "fill")
		}
		var params = get_params();
		delete params.s;
		history.replaceState(null, null, parse_params(params));
	}
	function search_prompt() {
		if (!searching) {
			var term = prompt("Enter a search term (regexp " +
			    "allowed, eg: ^ext4_)"
			    + (ignorecase ? ", ignoring case" : "")
			    + "\nPress Ctrl-i to toggle case sensitivity", "");
			if (term != null) search(term);
		} else {
			reset_search();
			searching = 0;
			currentSearchTerm = null;
			searchbtn.classList.remove("show");
			searchbtn.firstChild.nodeValue = "Search"
			matchedtxt.classList.add("hide");
			matchedtxt.firstChild.nodeValue = ""
		}
	}
	function search(term) {
		if (term) currentSearchTerm = term;
		if (currentSearchTerm === null) return;

		var re = new RegExp(currentSearchTerm, ignorecase ? 'i' : '');
		var el = document.getElementById("frames").children;
		var matches = new Object();
		var maxwidth = 0;
		for (var i = 0; i < el.length; i++) {
			var e = el[i];
			var func = g_to_func(e);
			var rect = find_child(e, "rect");
			if (func == null || rect == null)
				continue;

			// Save max width. Only works as we have a root frame
			var w = parseFloat(rect.attributes.width.value);
			if (w > maxwidth)
				maxwidth = w;

			if (func.match(re)) {
				// highlight
				var x = parseFloat(rect.attributes.x.value);
				orig_save(rect, "fill");
				rect.attributes.fill.value = "rgb(230,0,230)";

				// remember matches
				if (matches[x] == undefined) {
					matches[x] = w;
				} else {
					if (w > matches[x]) {
						// overwrite with parent
						matches[x] = w;
					}
				}
				searching = 1;
			}
		}
		if (!searching)
			return;
		var params = get_params();
		params.s = currentSearchTerm;
		history.replaceState(null, null, parse_params(params));

		searchbtn.classList.add("show");
		searchbtn.firstChild.nodeValue = "Reset Search";

		// calculate percent matched, excluding vertical overlap
		var count = 0;
		var lastx = -1;
		var lastw = 0;
		var keys = Array();
		for (k in matches) {
			if (matches.hasOwnProperty(k))
				keys.push(k);
		}
		// sort the matched frames by their x location
		// ascending, then width descending
		keys.sort(function(a, b){
			return a - b;
		});
		// Step through frames saving only the biggest bottom-up frames
		// thanks to the sort order. This relies on the tree property
		// where children are always smaller than their parents.
		var fudge = 0.0001;	// JavaScript floating point
		for (var k in keys) {
			var x = parseFloat(keys[k]);
			var w = matches[keys[k]];
			if (x >= lastx + lastw - fudge) {
				count += w;
				lastx = x;
				lastw = w;
			}
		}
		// display matched percent
		matchedtxt.classList.remove("hide");
		var pct = 100 * count / maxwidth;
		if (pct != 100) pct = pct.toFixed(1)
		matchedtxt.firstChild.nodeValue = "Matched: " + pct + "%";
	}
]]>
</script>
<rect x="0.0" y="0" width="1200.0" height="646.0" fill="url(#background)"  />
<text id="title" x="600.00" y="24" >Flame Graph</text>
<text id="details" x="10.00" y="629" > </text>
<text id="unzoom" x="10.00" y="24" class="hide">Reset Zoom</text>
<text id="search" x="1090.00" y="24" >Search</text>
<text id="ignorecase" x="1174.00" y="24" >ic</text>
<text id="matched" x="1090.00" y="629" > </text>
<g id="frames">
<g >
<title>enqueue_task (4,678,559 samples, 0.04%)</title><rect x="868.5" y="85" width="0.4" height="15.0" fill="rgb(236,146,34)" rx="2" ry="2" />
<text  x="871.49" y="95.5" ></text>
</g>
<g >
<title>mem.doNotOptimizeAway__anon_3369 (1,158,707,820 samples, 9.23%)</title><rect x="1037.0" y="485" width="108.9" height="15.0" fill="rgb(209,19,4)" rx="2" ry="2" />
<text  x="1040.01" y="495.5" >mem.doNotOpti..</text>
</g>
<g >
<title>input_event (9,497,802 samples, 0.08%)</title><rect x="868.0" y="293" width="0.9" height="15.0" fill="rgb(211,30,7)" rx="2" ry="2" />
<text  x="871.03" y="303.5" ></text>
</g>
<g >
<title>xhci_irq (4,554,704 samples, 0.04%)</title><rect x="1143.8" y="373" width="0.4" height="15.0" fill="rgb(246,192,46)" rx="2" ry="2" />
<text  x="1146.76" y="383.5" ></text>
</g>
<g >
<title>ttwu_do_activate (4,426,559 samples, 0.04%)</title><rect x="624.8" y="117" width="0.4" height="15.0" fill="rgb(221,77,18)" rx="2" ry="2" />
<text  x="627.83" y="127.5" ></text>
</g>
<g >
<title>__handle_irq_event_percpu (17,759,318 samples, 0.14%)</title><rect x="623.2" y="405" width="1.6" height="15.0" fill="rgb(243,176,42)" rx="2" ry="2" />
<text  x="626.16" y="415.5" ></text>
</g>
<g >
<title>pick_next_task_fair (13,611,119 samples, 0.11%)</title><rect x="625.8" y="405" width="1.3" height="15.0" fill="rgb(248,200,47)" rx="2" ry="2" />
<text  x="628.78" y="415.5" ></text>
</g>
<g >
<title>tasklet_action_common.isra.0 (4,741,577 samples, 0.04%)</title><rect x="1034.1" y="405" width="0.4" height="15.0" fill="rgb(230,118,28)" rx="2" ry="2" />
<text  x="1037.09" y="415.5" ></text>
</g>
<g >
<title>handle_edge_irq (4,554,704 samples, 0.04%)</title><rect x="1143.8" y="421" width="0.4" height="15.0" fill="rgb(226,99,23)" rx="2" ry="2" />
<text  x="1146.76" y="431.5" ></text>
</g>
<g >
<title>hid_report_raw_event (13,451,499 samples, 0.11%)</title><rect x="1144.2" y="325" width="1.3" height="15.0" fill="rgb(208,17,4)" rx="2" ry="2" />
<text  x="1147.19" y="335.5" ></text>
</g>
<g >
<title>__usb_hcd_giveback_urb (10,128,843 samples, 0.08%)</title><rect x="624.8" y="389" width="1.0" height="15.0" fill="rgb(238,153,36)" rx="2" ry="2" />
<text  x="627.83" y="399.5" ></text>
</g>
<g >
<title>asm_common_interrupt (4,741,577 samples, 0.04%)</title><rect x="1034.1" y="469" width="0.4" height="15.0" fill="rgb(234,135,32)" rx="2" ry="2" />
<text  x="1037.09" y="479.5" ></text>
</g>
<g >
<title>sched_mm_cid_remote_clear (13,643,891 samples, 0.11%)</title><rect x="627.2" y="405" width="1.3" height="15.0" fill="rgb(226,96,23)" rx="2" ry="2" />
<text  x="630.22" y="415.5" ></text>
</g>
<g >
<title>scheduler_tick (49,188,196 samples, 0.39%)</title><rect x="629.1" y="357" width="4.6" height="15.0" fill="rgb(252,220,52)" rx="2" ry="2" />
<text  x="632.06" y="367.5" ></text>
</g>
<g >
<title>__wake_up_common_lock (4,426,559 samples, 0.04%)</title><rect x="624.8" y="229" width="0.4" height="15.0" fill="rgb(245,185,44)" rx="2" ry="2" />
<text  x="627.83" y="239.5" ></text>
</g>
<g >
<title>handle_softirqs (23,044,691 samples, 0.18%)</title><rect x="868.0" y="421" width="2.2" height="15.0" fill="rgb(245,186,44)" rx="2" ry="2" />
<text  x="871.03" y="431.5" ></text>
</g>
<g >
<title>tick_sched_handle (26,303,637 samples, 0.21%)</title><rect x="1034.5" y="373" width="2.5" height="15.0" fill="rgb(226,98,23)" rx="2" ry="2" />
<text  x="1037.54" y="383.5" ></text>
</g>
<g >
<title>tasklet_action_common.isra.0 (23,044,691 samples, 0.18%)</title><rect x="868.0" y="405" width="2.2" height="15.0" fill="rgb(230,118,28)" rx="2" ry="2" />
<text  x="871.03" y="415.5" ></text>
</g>
<g >
<title>hid_input_report (4,426,559 samples, 0.04%)</title><rect x="624.8" y="357" width="0.4" height="15.0" fill="rgb(213,40,9)" rx="2" ry="2" />
<text  x="627.83" y="367.5" ></text>
</g>
<g >
<title>hid_irq_in (23,044,691 samples, 0.18%)</title><rect x="868.0" y="357" width="2.2" height="15.0" fill="rgb(212,36,8)" rx="2" ry="2" />
<text  x="871.03" y="367.5" ></text>
</g>
<g >
<title>asm_common_interrupt (18,006,203 samples, 0.14%)</title><rect x="1143.8" y="469" width="1.7" height="15.0" fill="rgb(234,135,32)" rx="2" ry="2" />
<text  x="1146.76" y="479.5" ></text>
</g>
<g >
<title>exit_to_user_mode_prepare (15,308,314 samples, 0.12%)</title><rect x="627.1" y="453" width="1.4" height="15.0" fill="rgb(235,138,33)" rx="2" ry="2" />
<text  x="630.06" y="463.5" ></text>
</g>
<g >
<title>apic_ack_irq (12,516,914 samples, 0.10%)</title><rect x="622.0" y="421" width="1.2" height="15.0" fill="rgb(222,81,19)" rx="2" ry="2" />
<text  x="624.98" y="431.5" ></text>
</g>
<g >
<title>__irq_exit_rcu (10,128,843 samples, 0.08%)</title><rect x="624.8" y="453" width="1.0" height="15.0" fill="rgb(233,131,31)" rx="2" ry="2" />
<text  x="627.83" y="463.5" ></text>
</g>
<g >
<title>all (12,550,861,867 samples, 100%)</title><rect x="10.0" y="597" width="1180.0" height="15.0" fill="rgb(213,39,9)" rx="2" ry="2" />
<text  x="13.00" y="607.5" ></text>
</g>
<g >
<title>hidinput_report_event (4,426,559 samples, 0.04%)</title><rect x="624.8" y="325" width="0.4" height="15.0" fill="rgb(236,145,34)" rx="2" ry="2" />
<text  x="627.83" y="335.5" ></text>
</g>
<g >
<title>hid_irq_in (13,451,499 samples, 0.11%)</title><rect x="1144.2" y="357" width="1.3" height="15.0" fill="rgb(212,36,8)" rx="2" ry="2" />
<text  x="1147.19" y="367.5" ></text>
</g>
<g >
<title>xhci_queue_bulk_tx (5,702,284 samples, 0.05%)</title><rect x="625.2" y="325" width="0.6" height="15.0" fill="rgb(215,47,11)" rx="2" ry="2" />
<text  x="628.24" y="335.5" ></text>
</g>
<g >
<title>__wake_up_common_lock (4,426,559 samples, 0.04%)</title><rect x="624.8" y="181" width="0.4" height="15.0" fill="rgb(245,185,44)" rx="2" ry="2" />
<text  x="627.83" y="191.5" ></text>
</g>
<g >
<title>update_load_avg (26,204,104 samples, 0.21%)</title><rect x="631.2" y="325" width="2.5" height="15.0" fill="rgb(247,194,46)" rx="2" ry="2" />
<text  x="634.22" y="335.5" ></text>
</g>
<g >
<title>irq_work_tick (14,090,704 samples, 0.11%)</title><rect x="1034.5" y="341" width="1.4" height="15.0" fill="rgb(226,97,23)" rx="2" ry="2" />
<text  x="1037.54" y="351.5" ></text>
</g>
<g >
<title>update_curr (11,991,320 samples, 0.10%)</title><rect x="630.1" y="325" width="1.1" height="15.0" fill="rgb(234,135,32)" rx="2" ry="2" />
<text  x="633.09" y="335.5" ></text>
</g>
<g >
<title>ep_poll_callback (4,678,559 samples, 0.04%)</title><rect x="868.5" y="181" width="0.4" height="15.0" fill="rgb(228,110,26)" rx="2" ry="2" />
<text  x="871.49" y="191.5" ></text>
</g>
<g >
<title>usb_hcd_submit_urb (5,702,284 samples, 0.05%)</title><rect x="625.2" y="357" width="0.6" height="15.0" fill="rgb(251,211,50)" rx="2" ry="2" />
<text  x="628.24" y="367.5" ></text>
</g>
<g >
<title>xhci_queue_bulk_tx (13,546,889 samples, 0.11%)</title><rect x="868.9" y="309" width="1.3" height="15.0" fill="rgb(215,47,11)" rx="2" ry="2" />
<text  x="871.93" y="319.5" ></text>
</g>
<g >
<title>enqueue_task_fair (4,678,559 samples, 0.04%)</title><rect x="868.5" y="69" width="0.4" height="15.0" fill="rgb(222,82,19)" rx="2" ry="2" />
<text  x="871.49" y="79.5" ></text>
</g>
<g >
<title>__common_interrupt (4,554,704 samples, 0.04%)</title><rect x="1143.8" y="437" width="0.4" height="15.0" fill="rgb(244,180,43)" rx="2" ry="2" />
<text  x="1146.76" y="447.5" ></text>
</g>
<g >
<title>linreg.LinReg(20).fit (13,016,330 samples, 0.10%)</title><rect x="10.0" y="501" width="1.2" height="15.0" fill="rgb(208,14,3)" rx="2" ry="2" />
<text  x="13.00" y="511.5" ></text>
</g>
<g >
<title>__wake_up_common (4,426,559 samples, 0.04%)</title><rect x="624.8" y="165" width="0.4" height="15.0" fill="rgb(254,227,54)" rx="2" ry="2" />
<text  x="627.83" y="175.5" ></text>
</g>
<g >
<title>__irq_exit_rcu (23,044,691 samples, 0.18%)</title><rect x="868.0" y="437" width="2.2" height="15.0" fill="rgb(233,131,31)" rx="2" ry="2" />
<text  x="871.03" y="447.5" ></text>
</g>
<g >
<title>task_tick_fair (5,863,403 samples, 0.05%)</title><rect x="1035.9" y="325" width="0.5" height="15.0" fill="rgb(223,87,20)" rx="2" ry="2" />
<text  x="1038.86" y="335.5" ></text>
</g>
<g >
<title>error_return (5,239,202 samples, 0.04%)</title><rect x="1145.5" y="469" width="0.4" height="15.0" fill="rgb(236,144,34)" rx="2" ry="2" />
<text  x="1148.46" y="479.5" ></text>
</g>
<g >
<title>schedule (13,611,119 samples, 0.11%)</title><rect x="625.8" y="437" width="1.3" height="15.0" fill="rgb(211,29,7)" rx="2" ry="2" />
<text  x="628.78" y="447.5" ></text>
</g>
<g >
<title>__wake_up_common_lock (4,678,559 samples, 0.04%)</title><rect x="868.5" y="165" width="0.4" height="15.0" fill="rgb(245,185,44)" rx="2" ry="2" />
<text  x="871.49" y="175.5" ></text>
</g>
<g >
<title>__sysvec_apic_timer_interrupt (55,145,753 samples, 0.44%)</title><rect x="628.5" y="453" width="5.2" height="15.0" fill="rgb(249,203,48)" rx="2" ry="2" />
<text  x="631.50" y="463.5" ></text>
</g>
<g >
<title>input_event (4,426,559 samples, 0.04%)</title><rect x="624.8" y="309" width="0.4" height="15.0" fill="rgb(211,30,7)" rx="2" ry="2" />
<text  x="627.83" y="319.5" ></text>
</g>
<g >
<title>tick_sched_timer (55,145,753 samples, 0.44%)</title><rect x="628.5" y="405" width="5.2" height="15.0" fill="rgb(210,27,6)" rx="2" ry="2" />
<text  x="631.50" y="415.5" ></text>
</g>
<g >
<title>xhci_urb_enqueue (4,741,577 samples, 0.04%)</title><rect x="1034.1" y="325" width="0.4" height="15.0" fill="rgb(243,174,41)" rx="2" ry="2" />
<text  x="1037.09" y="335.5" ></text>
</g>
<g >
<title>pollwake (4,426,559 samples, 0.04%)</title><rect x="624.8" y="149" width="0.4" height="15.0" fill="rgb(245,184,44)" rx="2" ry="2" />
<text  x="627.83" y="159.5" ></text>
</g>
<g >
<title>reweight_entity (4,426,559 samples, 0.04%)</title><rect x="624.8" y="69" width="0.4" height="15.0" fill="rgb(209,22,5)" rx="2" ry="2" />
<text  x="627.83" y="79.5" ></text>
</g>
<g >
<title>usb_hcd_submit_urb (4,741,577 samples, 0.04%)</title><rect x="1034.1" y="341" width="0.4" height="15.0" fill="rgb(251,211,50)" rx="2" ry="2" />
<text  x="1037.09" y="351.5" ></text>
</g>
<g >
<title>cpuacct_charge (11,991,320 samples, 0.10%)</title><rect x="630.1" y="309" width="1.1" height="15.0" fill="rgb(240,162,38)" rx="2" ry="2" />
<text  x="633.09" y="319.5" ></text>
</g>
<g >
<title>start.callMain (12,550,861,867 samples, 100.00%)</title><rect x="10.0" y="517" width="1180.0" height="15.0" fill="rgb(237,149,35)" rx="2" ry="2" />
<text  x="13.00" y="527.5" >start.callMain</text>
</g>
<g >
<title>usb_giveback_urb_bh (10,128,843 samples, 0.08%)</title><rect x="624.8" y="405" width="1.0" height="15.0" fill="rgb(218,60,14)" rx="2" ry="2" />
<text  x="627.83" y="415.5" ></text>
</g>
<g >
<title>trigger_load_balance (6,349,530 samples, 0.05%)</title><rect x="1036.4" y="341" width="0.6" height="15.0" fill="rgb(235,138,33)" rx="2" ry="2" />
<text  x="1039.41" y="351.5" ></text>
</g>
<g >
<title>handle_softirqs (10,128,843 samples, 0.08%)</title><rect x="624.8" y="437" width="1.0" height="15.0" fill="rgb(245,186,44)" rx="2" ry="2" />
<text  x="627.83" y="447.5" ></text>
</g>
<g >
<title>__hrtimer_run_queues (26,303,637 samples, 0.21%)</title><rect x="1034.5" y="405" width="2.5" height="15.0" fill="rgb(244,180,43)" rx="2" ry="2" />
<text  x="1037.54" y="415.5" ></text>
</g>
<g >
<title>ttwu_do_activate (4,678,559 samples, 0.04%)</title><rect x="868.5" y="101" width="0.4" height="15.0" fill="rgb(221,77,18)" rx="2" ry="2" />
<text  x="871.49" y="111.5" ></text>
</g>
<g >
<title>tick_sched_handle (55,145,753 samples, 0.44%)</title><rect x="628.5" y="389" width="5.2" height="15.0" fill="rgb(226,98,23)" rx="2" ry="2" />
<text  x="631.50" y="399.5" ></text>
</g>
<g >
<title>linreg.LinReg(20).fit (2,515,699,738 samples, 20.04%)</title><rect x="633.7" y="485" width="236.5" height="15.0" fill="rgb(208,14,3)" rx="2" ry="2" />
<text  x="636.68" y="495.5" >linreg.LinReg(20).fit</text>
</g>
<g >
<title>enqueue_task_fair (4,426,559 samples, 0.04%)</title><rect x="624.8" y="85" width="0.4" height="15.0" fill="rgb(222,82,19)" rx="2" ry="2" />
<text  x="627.83" y="95.5" ></text>
</g>
<g >
<title>xhci_urb_enqueue (5,702,284 samples, 0.05%)</title><rect x="625.2" y="341" width="0.6" height="15.0" fill="rgb(243,174,41)" rx="2" ry="2" />
<text  x="628.24" y="351.5" ></text>
</g>
<g >
<title>__wake_up_common_lock (9,497,802 samples, 0.08%)</title><rect x="868.0" y="213" width="0.9" height="15.0" fill="rgb(245,185,44)" rx="2" ry="2" />
<text  x="871.03" y="223.5" ></text>
</g>
<g >
<title>irqentry_exit_to_user_mode (15,308,314 samples, 0.12%)</title><rect x="627.1" y="469" width="1.4" height="15.0" fill="rgb(211,28,6)" rx="2" ry="2" />
<text  x="630.06" y="479.5" ></text>
</g>
<g >
<title>task_tick_fair (49,188,196 samples, 0.39%)</title><rect x="629.1" y="341" width="4.6" height="15.0" fill="rgb(223,87,20)" rx="2" ry="2" />
<text  x="632.06" y="351.5" ></text>
</g>
<g >
<title>__usb_hcd_giveback_urb (23,044,691 samples, 0.18%)</title><rect x="868.0" y="373" width="2.2" height="15.0" fill="rgb(238,153,36)" rx="2" ry="2" />
<text  x="871.03" y="383.5" ></text>
</g>
<g >
<title>hid_report_raw_event (9,497,802 samples, 0.08%)</title><rect x="868.0" y="325" width="0.9" height="15.0" fill="rgb(208,17,4)" rx="2" ry="2" />
<text  x="871.03" y="335.5" ></text>
</g>
<g >
<title>common_interrupt (40,405,075 samples, 0.32%)</title><rect x="622.0" y="469" width="3.8" height="15.0" fill="rgb(221,76,18)" rx="2" ry="2" />
<text  x="624.98" y="479.5" ></text>
</g>
<g >
<title>__wake_up_common (4,426,559 samples, 0.04%)</title><rect x="624.8" y="213" width="0.4" height="15.0" fill="rgb(254,227,54)" rx="2" ry="2" />
<text  x="627.83" y="223.5" ></text>
</g>
<g >
<title>start.posixCallMainAndExit (12,550,861,867 samples, 100.00%)</title><rect x="10.0" y="549" width="1180.0" height="15.0" fill="rgb(232,125,29)" rx="2" ry="2" />
<text  x="13.00" y="559.5" >start.posixCallMainAndExit</text>
</g>
<g >
<title>try_to_wake_up (4,678,559 samples, 0.04%)</title><rect x="868.5" y="117" width="0.4" height="15.0" fill="rgb(226,100,24)" rx="2" ry="2" />
<text  x="871.49" y="127.5" ></text>
</g>
<g >
<title>hrtimer_interrupt (26,303,637 samples, 0.21%)</title><rect x="1034.5" y="421" width="2.5" height="15.0" fill="rgb(235,139,33)" rx="2" ry="2" />
<text  x="1037.54" y="431.5" ></text>
</g>
<g >
<title>input_to_handler (9,497,802 samples, 0.08%)</title><rect x="868.0" y="245" width="0.9" height="15.0" fill="rgb(217,55,13)" rx="2" ry="2" />
<text  x="871.03" y="255.5" ></text>
</g>
<g >
<title>xhci_queue_bulk_tx (4,741,577 samples, 0.04%)</title><rect x="1034.1" y="309" width="0.4" height="15.0" fill="rgb(215,47,11)" rx="2" ry="2" />
<text  x="1037.09" y="319.5" ></text>
</g>
<g >
<title>__update_load_avg_se (12,512,208 samples, 0.10%)</title><rect x="632.5" y="309" width="1.2" height="15.0" fill="rgb(210,27,6)" rx="2" ry="2" />
<text  x="635.51" y="319.5" ></text>
</g>
<g >
<title>evdev_events (9,497,802 samples, 0.08%)</title><rect x="868.0" y="229" width="0.9" height="15.0" fill="rgb(210,27,6)" rx="2" ry="2" />
<text  x="871.03" y="239.5" ></text>
</g>
<g >
<title>linreg.LinReg(20).predict (1,774,219,142 samples, 14.14%)</title><rect x="870.2" y="485" width="166.8" height="15.0" fill="rgb(219,65,15)" rx="2" ry="2" />
<text  x="873.20" y="495.5" >linreg.LinReg(20).pre..</text>
</g>
<g >
<title>hrtimer_interrupt (55,145,753 samples, 0.44%)</title><rect x="628.5" y="437" width="5.2" height="15.0" fill="rgb(235,139,33)" rx="2" ry="2" />
<text  x="631.50" y="447.5" ></text>
</g>
<g >
<title>enqueue_task (4,426,559 samples, 0.04%)</title><rect x="624.8" y="101" width="0.4" height="15.0" fill="rgb(236,146,34)" rx="2" ry="2" />
<text  x="627.83" y="111.5" ></text>
</g>
<g >
<title>input_to_handler (4,426,559 samples, 0.04%)</title><rect x="624.8" y="261" width="0.4" height="15.0" fill="rgb(217,55,13)" rx="2" ry="2" />
<text  x="627.83" y="271.5" ></text>
</g>
<g >
<title>hrtimer_active (10,992,772 samples, 0.09%)</title><rect x="629.1" y="325" width="1.0" height="15.0" fill="rgb(218,64,15)" rx="2" ry="2" />
<text  x="632.06" y="335.5" ></text>
</g>
<g >
<title>handle_irq_event (17,759,318 samples, 0.14%)</title><rect x="623.2" y="421" width="1.6" height="15.0" fill="rgb(215,49,11)" rx="2" ry="2" />
<text  x="626.16" y="431.5" ></text>
</g>
<g >
<title>__update_load_avg_cfs_rq (13,691,896 samples, 0.11%)</title><rect x="631.2" y="309" width="1.3" height="15.0" fill="rgb(234,137,32)" rx="2" ry="2" />
<text  x="634.22" y="319.5" ></text>
</g>
<g >
<title>task_work_run (13,643,891 samples, 0.11%)</title><rect x="627.2" y="437" width="1.3" height="15.0" fill="rgb(216,52,12)" rx="2" ry="2" />
<text  x="630.22" y="447.5" ></text>
</g>
<g >
<title>usb_giveback_urb_bh (4,741,577 samples, 0.04%)</title><rect x="1034.1" y="389" width="0.4" height="15.0" fill="rgb(218,60,14)" rx="2" ry="2" />
<text  x="1037.09" y="399.5" ></text>
</g>
<g >
<title>common_interrupt (4,741,577 samples, 0.04%)</title><rect x="1034.1" y="453" width="0.4" height="15.0" fill="rgb(221,76,18)" rx="2" ry="2" />
<text  x="1037.09" y="463.5" ></text>
</g>
<g >
<title>linreg.LinReg(20).predict (487,739,093 samples, 3.89%)</title><rect x="11.2" y="501" width="45.9" height="15.0" fill="rgb(219,65,15)" rx="2" ry="2" />
<text  x="14.22" y="511.5" >linr..</text>
</g>
<g >
<title>hid_irq_in (4,741,577 samples, 0.04%)</title><rect x="1034.1" y="357" width="0.4" height="15.0" fill="rgb(212,36,8)" rx="2" ry="2" />
<text  x="1037.09" y="367.5" ></text>
</g>
<g >
<title>linreg_runner.main (11,581,560,016 samples, 92.28%)</title><rect x="57.1" y="501" width="1088.8" height="15.0" fill="rgb(240,161,38)" rx="2" ry="2" />
<text  x="60.08" y="511.5" >linreg_runner.main</text>
</g>
<g >
<title>__hrtimer_run_queues (55,145,753 samples, 0.44%)</title><rect x="628.5" y="421" width="5.2" height="15.0" fill="rgb(244,180,43)" rx="2" ry="2" />
<text  x="631.50" y="431.5" ></text>
</g>
<g >
<title>set_next_entity (13,611,119 samples, 0.11%)</title><rect x="625.8" y="389" width="1.3" height="15.0" fill="rgb(238,155,37)" rx="2" ry="2" />
<text  x="628.78" y="399.5" ></text>
</g>
<g >
<title>xhci_ring_ep_doorbell (4,741,577 samples, 0.04%)</title><rect x="1034.1" y="293" width="0.4" height="15.0" fill="rgb(250,207,49)" rx="2" ry="2" />
<text  x="1037.09" y="303.5" ></text>
</g>
<g >
<title>asm_sysvec_apic_timer_interrupt (70,454,067 samples, 0.56%)</title><rect x="627.1" y="485" width="6.6" height="15.0" fill="rgb(239,157,37)" rx="2" ry="2" />
<text  x="630.06" y="495.5" ></text>
</g>
<g >
<title>__irq_exit_rcu (4,741,577 samples, 0.04%)</title><rect x="1034.1" y="437" width="0.4" height="15.0" fill="rgb(233,131,31)" rx="2" ry="2" />
<text  x="1037.09" y="447.5" ></text>
</g>
<g >
<title>prepare_transfer (13,546,889 samples, 0.11%)</title><rect x="868.9" y="293" width="1.3" height="15.0" fill="rgb(241,167,39)" rx="2" ry="2" />
<text  x="871.93" y="303.5" ></text>
</g>
<g >
<title>input_pass_values.part.0 (4,426,559 samples, 0.04%)</title><rect x="624.8" y="277" width="0.4" height="15.0" fill="rgb(211,28,6)" rx="2" ry="2" />
<text  x="627.83" y="287.5" ></text>
</g>
<g >
<title>hid_report_raw_event (4,426,559 samples, 0.04%)</title><rect x="624.8" y="341" width="0.4" height="15.0" fill="rgb(208,17,4)" rx="2" ry="2" />
<text  x="627.83" y="351.5" ></text>
</g>
<g >
<title>sysvec_apic_timer_interrupt (55,145,753 samples, 0.44%)</title><rect x="628.5" y="469" width="5.2" height="15.0" fill="rgb(226,99,23)" rx="2" ry="2" />
<text  x="631.50" y="479.5" ></text>
</g>
<g >
<title>tick_sched_timer (26,303,637 samples, 0.21%)</title><rect x="1034.5" y="389" width="2.5" height="15.0" fill="rgb(210,27,6)" rx="2" ry="2" />
<text  x="1037.54" y="399.5" ></text>
</g>
<g >
<title>input_event_dispose (9,497,802 samples, 0.08%)</title><rect x="868.0" y="277" width="0.9" height="15.0" fill="rgb(244,183,43)" rx="2" ry="2" />
<text  x="871.03" y="287.5" ></text>
</g>
<g >
<title>hid_irq_in (10,128,843 samples, 0.08%)</title><rect x="624.8" y="373" width="1.0" height="15.0" fill="rgb(212,36,8)" rx="2" ry="2" />
<text  x="627.83" y="383.5" ></text>
</g>
<g >
<title>enqueue_entity (4,678,559 samples, 0.04%)</title><rect x="868.5" y="53" width="0.4" height="15.0" fill="rgb(225,92,22)" rx="2" ry="2" />
<text  x="871.49" y="63.5" ></text>
</g>
<g >
<title>__sysvec_apic_timer_interrupt (26,303,637 samples, 0.21%)</title><rect x="1034.5" y="437" width="2.5" height="15.0" fill="rgb(249,203,48)" rx="2" ry="2" />
<text  x="1037.54" y="447.5" ></text>
</g>
<g >
<title>xhci_urb_enqueue (13,546,889 samples, 0.11%)</title><rect x="868.9" y="325" width="1.3" height="15.0" fill="rgb(243,174,41)" rx="2" ry="2" />
<text  x="871.93" y="335.5" ></text>
</g>
<g >
<title>exit_to_user_mode_prepare (13,611,119 samples, 0.11%)</title><rect x="625.8" y="453" width="1.3" height="15.0" fill="rgb(235,138,33)" rx="2" ry="2" />
<text  x="628.78" y="463.5" ></text>
</g>
<g >
<title>input_pass_values.part.0 (9,497,802 samples, 0.08%)</title><rect x="868.0" y="261" width="0.9" height="15.0" fill="rgb(211,28,6)" rx="2" ry="2" />
<text  x="871.03" y="271.5" ></text>
</g>
<g >
<title>update_process_times (55,145,753 samples, 0.44%)</title><rect x="628.5" y="373" width="5.2" height="15.0" fill="rgb(207,9,2)" rx="2" ry="2" />
<text  x="631.50" y="383.5" ></text>
</g>
<g >
<title>linreg_runner (12,550,861,867 samples, 100.00%)</title><rect x="10.0" y="581" width="1180.0" height="15.0" fill="rgb(206,8,1)" rx="2" ry="2" />
<text  x="13.00" y="591.5" >linreg_runner</text>
</g>
<g >
<title>__usb_hcd_giveback_urb (13,451,499 samples, 0.11%)</title><rect x="1144.2" y="373" width="1.3" height="15.0" fill="rgb(238,153,36)" rx="2" ry="2" />
<text  x="1147.19" y="383.5" ></text>
</g>
<g >
<title>task_mm_cid_work (13,643,891 samples, 0.11%)</title><rect x="627.2" y="421" width="1.3" height="15.0" fill="rgb(233,130,31)" rx="2" ry="2" />
<text  x="630.22" y="431.5" ></text>
</g>
<g >
<title>usb_hcd_submit_urb (13,546,889 samples, 0.11%)</title><rect x="868.9" y="341" width="1.3" height="15.0" fill="rgb(251,211,50)" rx="2" ry="2" />
<text  x="871.93" y="351.5" ></text>
</g>
<g >
<title>ep_poll_callback (4,426,559 samples, 0.04%)</title><rect x="624.8" y="197" width="0.4" height="15.0" fill="rgb(228,110,26)" rx="2" ry="2" />
<text  x="627.83" y="207.5" ></text>
</g>
<g >
<title>xhci_ring_ep_doorbell (5,702,284 samples, 0.05%)</title><rect x="625.2" y="309" width="0.6" height="15.0" fill="rgb(250,207,49)" rx="2" ry="2" />
<text  x="628.24" y="319.5" ></text>
</g>
<g >
<title>handle_irq_event (4,554,704 samples, 0.04%)</title><rect x="1143.8" y="405" width="0.4" height="15.0" fill="rgb(215,49,11)" rx="2" ry="2" />
<text  x="1146.76" y="415.5" ></text>
</g>
<g >
<title>handle_edge_irq (30,276,232 samples, 0.24%)</title><rect x="622.0" y="437" width="2.8" height="15.0" fill="rgb(226,99,23)" rx="2" ry="2" />
<text  x="624.98" y="447.5" ></text>
</g>
<g >
<title>__wake_up_common (9,497,802 samples, 0.08%)</title><rect x="868.0" y="197" width="0.9" height="15.0" fill="rgb(254,227,54)" rx="2" ry="2" />
<text  x="871.03" y="207.5" ></text>
</g>
<g >
<title>__schedule (13,611,119 samples, 0.11%)</title><rect x="625.8" y="421" width="1.3" height="15.0" fill="rgb(234,133,31)" rx="2" ry="2" />
<text  x="628.78" y="431.5" ></text>
</g>
<g >
<title>start._start (12,550,861,867 samples, 100.00%)</title><rect x="10.0" y="565" width="1180.0" height="15.0" fill="rgb(243,176,42)" rx="2" ry="2" />
<text  x="13.00" y="575.5" >start._start</text>
</g>
<g >
<title>hid_input_report (13,451,499 samples, 0.11%)</title><rect x="1144.2" y="341" width="1.3" height="15.0" fill="rgb(213,40,9)" rx="2" ry="2" />
<text  x="1147.19" y="351.5" ></text>
</g>
<g >
<title>common_interrupt (23,044,691 samples, 0.18%)</title><rect x="868.0" y="453" width="2.2" height="15.0" fill="rgb(221,76,18)" rx="2" ry="2" />
<text  x="871.03" y="463.5" ></text>
</g>
<g >
<title>try_to_wake_up (4,426,559 samples, 0.04%)</title><rect x="624.8" y="133" width="0.4" height="15.0" fill="rgb(226,100,24)" rx="2" ry="2" />
<text  x="627.83" y="143.5" ></text>
</g>
<g >
<title>irqentry_exit_to_user_mode (13,611,119 samples, 0.11%)</title><rect x="625.8" y="469" width="1.3" height="15.0" fill="rgb(211,28,6)" rx="2" ry="2" />
<text  x="628.78" y="479.5" ></text>
</g>
<g >
<title>usb_giveback_urb_bh (13,451,499 samples, 0.11%)</title><rect x="1144.2" y="389" width="1.3" height="15.0" fill="rgb(218,60,14)" rx="2" ry="2" />
<text  x="1147.19" y="399.5" ></text>
</g>
<g >
<title>input_event_dispose (4,426,559 samples, 0.04%)</title><rect x="624.8" y="293" width="0.4" height="15.0" fill="rgb(244,183,43)" rx="2" ry="2" />
<text  x="627.83" y="303.5" ></text>
</g>
<g >
<title>update_process_times (26,303,637 samples, 0.21%)</title><rect x="1034.5" y="357" width="2.5" height="15.0" fill="rgb(207,9,2)" rx="2" ry="2" />
<text  x="1037.54" y="367.5" ></text>
</g>
<g >
<title>asm_sysvec_apic_timer_interrupt (26,303,637 samples, 0.21%)</title><rect x="1034.5" y="469" width="2.5" height="15.0" fill="rgb(239,157,37)" rx="2" ry="2" />
<text  x="1037.54" y="479.5" ></text>
</g>
<g >
<title>update_curr (5,863,403 samples, 0.05%)</title><rect x="1035.9" y="309" width="0.5" height="15.0" fill="rgb(234,135,32)" rx="2" ry="2" />
<text  x="1038.86" y="319.5" ></text>
</g>
<g >
<title>xhci_update_erst_dequeue (17,759,318 samples, 0.14%)</title><rect x="623.2" y="373" width="1.6" height="15.0" fill="rgb(234,135,32)" rx="2" ry="2" />
<text  x="626.16" y="383.5" ></text>
</g>
<g >
<title>__handle_irq_event_percpu (4,554,704 samples, 0.04%)</title><rect x="1143.8" y="389" width="0.4" height="15.0" fill="rgb(243,176,42)" rx="2" ry="2" />
<text  x="1146.76" y="399.5" ></text>
</g>
<g >
<title>usb_giveback_urb_bh (23,044,691 samples, 0.18%)</title><rect x="868.0" y="389" width="2.2" height="15.0" fill="rgb(218,60,14)" rx="2" ry="2" />
<text  x="871.03" y="399.5" ></text>
</g>
<g >
<title>asm_common_interrupt (54,016,194 samples, 0.43%)</title><rect x="622.0" y="485" width="5.1" height="15.0" fill="rgb(234,135,32)" rx="2" ry="2" />
<text  x="624.98" y="495.5" ></text>
</g>
<g >
<title>start.callMainWithArgs (12,550,861,867 samples, 100.00%)</title><rect x="10.0" y="533" width="1180.0" height="15.0" fill="rgb(211,29,6)" rx="2" ry="2" />
<text  x="13.00" y="543.5" >start.callMainWithArgs</text>
</g>
<g >
<title>xhci_irq (17,759,318 samples, 0.14%)</title><rect x="623.2" y="389" width="1.6" height="15.0" fill="rgb(246,192,46)" rx="2" ry="2" />
<text  x="626.16" y="399.5" ></text>
</g>
<g >
<title>__usb_hcd_giveback_urb (4,741,577 samples, 0.04%)</title><rect x="1034.1" y="373" width="0.4" height="15.0" fill="rgb(238,153,36)" rx="2" ry="2" />
<text  x="1037.09" y="383.5" ></text>
</g>
<g >
<title>tasklet_action_common.isra.0 (13,451,499 samples, 0.11%)</title><rect x="1144.2" y="405" width="1.3" height="15.0" fill="rgb(230,118,28)" rx="2" ry="2" />
<text  x="1147.19" y="415.5" ></text>
</g>
<g >
<title>sysvec_apic_timer_interrupt (26,303,637 samples, 0.21%)</title><rect x="1034.5" y="453" width="2.5" height="15.0" fill="rgb(226,99,23)" rx="2" ry="2" />
<text  x="1037.54" y="463.5" ></text>
</g>
<g >
<title>__wake_up_common (4,678,559 samples, 0.04%)</title><rect x="868.5" y="149" width="0.4" height="15.0" fill="rgb(254,227,54)" rx="2" ry="2" />
<text  x="871.49" y="159.5" ></text>
</g>
<g >
<title>scheduler_tick (5,863,403 samples, 0.05%)</title><rect x="1035.9" y="341" width="0.5" height="15.0" fill="rgb(252,220,52)" rx="2" ry="2" />
<text  x="1038.86" y="351.5" ></text>
</g>
<g >
<title>update_curr (4,426,559 samples, 0.04%)</title><rect x="624.8" y="53" width="0.4" height="15.0" fill="rgb(234,135,32)" rx="2" ry="2" />
<text  x="627.83" y="63.5" ></text>
</g>
<g >
<title>__calc_delta.constprop.0 (5,863,403 samples, 0.05%)</title><rect x="1035.9" y="293" width="0.5" height="15.0" fill="rgb(239,157,37)" rx="2" ry="2" />
<text  x="1038.86" y="303.5" ></text>
</g>
<g >
<title>handle_softirqs (13,451,499 samples, 0.11%)</title><rect x="1144.2" y="421" width="1.3" height="15.0" fill="rgb(245,186,44)" rx="2" ry="2" />
<text  x="1147.19" y="431.5" ></text>
</g>
<g >
<title>update_curr (4,678,559 samples, 0.04%)</title><rect x="868.5" y="37" width="0.4" height="15.0" fill="rgb(234,135,32)" rx="2" ry="2" />
<text  x="871.49" y="47.5" ></text>
</g>
<g >
<title>tasklet_action_common.isra.0 (10,128,843 samples, 0.08%)</title><rect x="624.8" y="421" width="1.0" height="15.0" fill="rgb(230,118,28)" rx="2" ry="2" />
<text  x="627.83" y="431.5" ></text>
</g>
<g >
<title>asm_common_interrupt (23,044,691 samples, 0.18%)</title><rect x="868.0" y="469" width="2.2" height="15.0" fill="rgb(234,135,32)" rx="2" ry="2" />
<text  x="871.03" y="479.5" ></text>
</g>
<g >
<title>hid_input_report (9,497,802 samples, 0.08%)</title><rect x="868.0" y="341" width="0.9" height="15.0" fill="rgb(213,40,9)" rx="2" ry="2" />
<text  x="871.03" y="351.5" ></text>
</g>
<g >
<title>__common_interrupt (30,276,232 samples, 0.24%)</title><rect x="622.0" y="453" width="2.8" height="15.0" fill="rgb(244,180,43)" rx="2" ry="2" />
<text  x="624.98" y="463.5" ></text>
</g>
<g >
<title>pollwake (4,678,559 samples, 0.04%)</title><rect x="868.5" y="133" width="0.4" height="15.0" fill="rgb(245,184,44)" rx="2" ry="2" />
<text  x="871.49" y="143.5" ></text>
</g>
<g >
<title>handle_softirqs (4,741,577 samples, 0.04%)</title><rect x="1034.1" y="421" width="0.4" height="15.0" fill="rgb(245,186,44)" rx="2" ry="2" />
<text  x="1037.09" y="431.5" ></text>
</g>
<g >
<title>hidinput_report_event (9,497,802 samples, 0.08%)</title><rect x="868.0" y="309" width="0.9" height="15.0" fill="rgb(236,145,34)" rx="2" ry="2" />
<text  x="871.03" y="319.5" ></text>
</g>
<g >
<title>__irq_exit_rcu (13,451,499 samples, 0.11%)</title><rect x="1144.2" y="437" width="1.3" height="15.0" fill="rgb(233,131,31)" rx="2" ry="2" />
<text  x="1147.19" y="447.5" ></text>
</g>
<g >
<title>common_interrupt (18,006,203 samples, 0.14%)</title><rect x="1143.8" y="453" width="1.7" height="15.0" fill="rgb(221,76,18)" rx="2" ry="2" />
<text  x="1146.76" y="463.5" ></text>
</g>
<g >
<title>mem.doNotOptimizeAway__anon_3369 (468,546,428 samples, 3.73%)</title><rect x="1145.9" y="501" width="44.1" height="15.0" fill="rgb(209,19,4)" rx="2" ry="2" />
<text  x="1148.95" y="511.5" >mem...</text>
</g>
<g >
<title>evdev_events (4,426,559 samples, 0.04%)</title><rect x="624.8" y="245" width="0.4" height="15.0" fill="rgb(210,27,6)" rx="2" ry="2" />
<text  x="627.83" y="255.5" ></text>
</g>
</g>
</svg>
